<svg width="34" height="34" viewBox="0 0 34 34" fill="none" xmlns="http://www.w3.org/2000/svg">
<rect width="34" height="34" fill="#E5E5E5"/>
<g id="Landing Page [Hover States]" clip-path="url(#clip0_0_1)">
<rect width="1440" height="2714" transform="translate(-144 -40)" fill="white"/>
<g id="header">
<g id="nav">
<g id="logo">
<circle id="Ellipse 2" cx="17" cy="17" r="17" fill="#F9CADA"/>
<path id="LuxSpace" d="M-40.668 8.296L-42.824 7.932V6.196H-33.864V7.932L-36.552 8.296V25.012L-30.56 24.76L-28.796 19.524L-26.528 19.832L-27.396 27H-42.88V25.32L-40.668 25.04V8.296ZM-12.2565 27.28C-12.8725 27.28 -13.3205 27.1493 -13.6005 26.888C-13.8805 26.6267 -14.0205 26.2347 -14.0205 25.712V24.956C-14.5245 25.572 -15.2339 26.1227 -16.1485 26.608C-17.0632 27.0747 -17.9779 27.308 -18.8925 27.308C-20.6845 27.308 -21.9632 26.8507 -22.7285 25.936C-23.4939 25.0027 -23.8765 23.472 -23.8765 21.344V13.448L-25.2765 13.056V11.46L-20.5165 11.096H-20.4885L-19.9285 11.488V21.344C-19.9285 22.7067 -19.7605 23.6587 -19.4245 24.2C-19.0885 24.7413 -18.4632 25.012 -17.5485 25.012C-16.4472 25.012 -15.4205 24.5827 -14.4685 23.724V13.448L-16.3445 13.028V11.46L-11.2765 11.096H-11.2205L-10.5485 11.488V25.264H-8.98053L-9.00853 26.86C-9.0832 26.8787 -9.42853 26.9533 -10.0445 27.084C-10.6605 27.2147 -11.3979 27.28 -12.2565 27.28ZM-1.87772 19.356L-6.49772 13.392L-7.95372 13.056V11.432H0.138282V13.056L-1.68172 13.392L0.530282 16.5L1.25828 17.676L1.98628 16.5L4.25428 13.392L2.35028 13.056V11.432H8.42628V13.056L6.83028 13.392L2.40628 18.824L7.25028 25.096L8.79028 25.348V27H0.698282V25.348L2.35028 25.068L0.194282 21.792L-0.645718 20.56L-1.31772 21.764L-3.61372 25.068L-1.45772 25.348V27H-8.17772V25.348L-6.38572 25.068L-1.87772 19.356ZM17.0074 27.308C15.9994 27.308 15.0941 27.224 14.2914 27.056C13.4887 26.888 12.5927 26.664 11.6034 26.384C10.9501 26.1973 10.5114 26.0947 10.2874 26.076L10.5394 20.896H12.8074L13.4234 24.508C13.6661 24.7693 14.0954 25.0027 14.7114 25.208C15.3461 25.4133 16.0647 25.516 16.8674 25.516C18.1181 25.516 19.0514 25.2453 19.6674 24.704C20.3021 24.144 20.6194 23.3693 20.6194 22.38C20.6194 21.7267 20.4327 21.1667 20.0594 20.7C19.6861 20.2147 19.1727 19.7853 18.5194 19.412C17.8661 19.02 16.9701 18.572 15.8314 18.068C14.2821 17.3587 12.9941 16.5187 11.9674 15.548C10.9594 14.5587 10.4554 13.224 10.4554 11.544C10.4554 10.4987 10.7261 9.556 11.2674 8.716C11.8087 7.85733 12.6114 7.18533 13.6754 6.7C14.7581 6.196 16.0741 5.944 17.6234 5.944C18.5381 5.944 19.3407 6.00933 20.0314 6.14C20.7407 6.27067 21.5061 6.448 22.3274 6.672C22.8127 6.80267 23.1767 6.88667 23.4194 6.924L23.2514 11.824H21.0114L20.4234 8.38C20.2554 8.212 19.9194 8.05333 19.4154 7.904C18.9114 7.736 18.3514 7.652 17.7354 7.652C16.6154 7.652 15.7661 7.91333 15.1874 8.436C14.6274 8.94 14.3474 9.62133 14.3474 10.48C14.3474 11.1707 14.5527 11.768 14.9634 12.272C15.3927 12.776 15.9061 13.2053 16.5034 13.56C17.1007 13.896 18.0434 14.3813 19.3314 15.016C20.3767 15.52 21.2727 16.0147 22.0194 16.5C22.7661 16.9853 23.4101 17.62 23.9514 18.404C24.4927 19.1693 24.7634 20.0747 24.7634 21.12C24.7634 22.1467 24.5021 23.1267 23.9794 24.06C23.4754 24.9933 22.6354 25.768 21.4594 26.384C20.3021 27 18.8181 27.308 17.0074 27.308ZM42.3065 18.712C42.3065 20.28 41.9798 21.7173 41.3265 23.024C40.6918 24.3307 39.7492 25.376 38.4985 26.16C37.2665 26.9253 35.7918 27.308 34.0745 27.308C33.7012 27.308 33.3092 27.2707 32.8985 27.196C32.5065 27.14 32.1892 27.0653 31.9465 26.972L32.0305 29.296V31.844L34.6345 32.18V33.776H26.3185V32.18L28.1385 31.844V14.092L26.3185 13.588V11.656L30.9385 11.068H30.9945L31.6945 11.628V13.196C32.1612 12.6173 32.7958 12.1133 33.5985 11.684C34.4012 11.2547 35.2785 11.04 36.2305 11.04C38.0038 11.04 39.4598 11.6747 40.5985 12.944C41.7372 14.1947 42.3065 16.1173 42.3065 18.712ZM34.7745 13.364C34.2145 13.364 33.6825 13.4853 33.1785 13.728C32.6745 13.9707 32.2918 14.2413 32.0305 14.54V24.928C32.1612 25.1147 32.4225 25.2733 32.8145 25.404C33.2252 25.5347 33.6732 25.6 34.1585 25.6C35.3718 25.6 36.3332 25.0773 37.0425 24.032C37.7705 22.968 38.1345 21.3067 38.1345 19.048C38.1345 17.144 37.8265 15.7253 37.2105 14.792C36.5945 13.84 35.7825 13.364 34.7745 13.364ZM44.2879 22.632C44.2879 20.9333 45.1373 19.6547 46.8359 18.796C48.5533 17.9373 50.7653 17.4987 53.4719 17.48V16.836C53.4719 16.0707 53.3879 15.4733 53.2199 15.044C53.0706 14.6147 52.7813 14.2973 52.3519 14.092C51.9413 13.868 51.3346 13.756 50.5319 13.756C49.6173 13.756 48.7959 13.8773 48.0679 14.12C47.3399 14.344 46.5839 14.6427 45.7999 15.016L44.9319 13.224C45.2119 12.9813 45.6786 12.692 46.3319 12.356C47.0039 12.02 47.7973 11.7307 48.7119 11.488C49.6266 11.2267 50.5693 11.096 51.5399 11.096C52.9773 11.096 54.0973 11.2827 54.8999 11.656C55.7213 12.0293 56.3093 12.6267 56.6639 13.448C57.0186 14.2693 57.1959 15.3707 57.1959 16.752V25.32H58.7079V26.888C58.3346 26.9813 57.8026 27.0747 57.1119 27.168C56.4213 27.2613 55.8146 27.308 55.2919 27.308C54.6573 27.308 54.2279 27.2147 54.0039 27.028C53.7986 26.8413 53.6959 26.4587 53.6959 25.88V25.124C53.1919 25.684 52.5386 26.188 51.7359 26.636C50.9333 27.084 50.0279 27.308 49.0199 27.308C48.1613 27.308 47.3679 27.1307 46.6399 26.776C45.9306 26.4027 45.3613 25.8707 44.9319 25.18C44.5026 24.4707 44.2879 23.6213 44.2879 22.632ZM50.8119 24.984C51.2039 24.984 51.6519 24.872 52.1559 24.648C52.6599 24.4053 53.0986 24.116 53.4719 23.78V19.188C51.7919 19.188 50.5319 19.4773 49.6919 20.056C48.8706 20.616 48.4599 21.344 48.4599 22.24C48.4599 23.136 48.6653 23.8173 49.0759 24.284C49.5053 24.7507 50.0839 24.984 50.8119 24.984ZM60.0913 19.3C60.0913 17.6947 60.4086 16.2667 61.0433 15.016C61.6966 13.7653 62.6206 12.7947 63.8153 12.104C65.0286 11.3947 66.438 11.04 68.0433 11.04C68.79 11.04 69.434 11.096 69.9753 11.208C70.5166 11.32 71.1233 11.4693 71.7953 11.656L72.6073 11.88L72.4393 16.668H70.0033L69.3033 13.588C69.1913 13.1027 68.6406 12.86 67.6513 12.86C66.606 12.86 65.7846 13.3173 65.1873 14.232C64.6086 15.1467 64.31 16.5747 64.2913 18.516C64.2913 20.5693 64.646 22.1467 65.3553 23.248C66.0646 24.3307 67.0073 24.872 68.1833 24.872C69.602 24.872 70.9086 24.4893 72.1033 23.724L72.7473 25.18C72.262 25.7027 71.5153 26.188 70.5073 26.636C69.518 27.084 68.4446 27.308 67.2873 27.308C64.898 27.308 63.0966 26.5707 61.8833 25.096C60.6886 23.6213 60.0913 21.6893 60.0913 19.3ZM82.0308 27.308C79.5668 27.308 77.7282 26.5893 76.5148 25.152C75.3202 23.696 74.7228 21.7173 74.7228 19.216C74.7228 17.536 75.0308 16.08 75.6468 14.848C76.2815 13.616 77.1682 12.6733 78.3068 12.02C79.4455 11.3667 80.7615 11.04 82.2548 11.04C84.1215 11.04 85.5588 11.5347 86.5668 12.524C87.5748 13.4947 88.0975 14.8853 88.1348 16.696C88.1348 17.928 88.0602 18.8427 87.9108 19.44H78.8108C78.8855 21.1387 79.2868 22.464 80.0148 23.416C80.7428 24.3493 81.7788 24.816 83.1228 24.816C83.8508 24.816 84.5975 24.6947 85.3628 24.452C86.1468 24.2093 86.7628 23.92 87.2108 23.584L87.9108 25.124C87.4068 25.6653 86.5855 26.1693 85.4468 26.636C84.3268 27.084 83.1882 27.308 82.0308 27.308ZM84.2148 17.76C84.2522 17.2373 84.2708 16.836 84.2708 16.556C84.2708 14.0733 83.4402 12.832 81.7788 12.832C80.8642 12.832 80.1548 13.196 79.6508 13.924C79.1468 14.652 78.8668 15.9307 78.8108 17.76H84.2148Z" fill="black"/>
</g>
</g>
</g>
</g>
<defs>
<clipPath id="clip0_0_1">
<rect width="1440" height="2714" fill="white" transform="translate(-144 -40)"/>
</clipPath>
</defs>
</svg>
